<svg 
          width="16" 
          height="20" fill="none" 
          xmlns="http://www.w3.org/2000/svg">
          <path d="M 13.34523169976524 19.999901917038297 C 13.003696425959303 20.000627522574497 12.666241569278418 19.953528929177907 12.357662017053268 19.86206811057955 C 12.04908246482812 19.770607291981193 11.777220620025822 19.637107281610962 11.562054123813715 19.471379153379207 L 0.5200662977508106 10.900760544820882 C 0.18381880576976023 10.645166052751332 0 10.324564395857657 0 9.993702937632381 C 0 9.662841479407106 0.18381880576976023 9.34223982251343 0.5200662977508106 9.086645330443881 L 11.95069569783411 0.516026125895339 C 12.33873941477866 0.2243155205593126 12.896350523705767 0.04086932483320447 13.500862310892357 0.006044429696832036 C 14.105374098078947 -0.0287804654395404 14.707267782262292 0.08786841305650417 15.174132839822473 0.33032917510390153 C 15.640997897382654 0.5727899371512989 15.93459123370516 0.9212019876239737 15.990326365919463 1.2989181960173004 C 16.046061498133767 1.6766344044106272 15.859373148729604 2.0527139598073734 15.471329465850983 2.3444245864287647 L 5.252346171715045 10.000845284413003 L 15.128409275716763 17.65726666352892 C 15.407963922953495 17.86693957711531 15.585543549340175 18.12225850885018 15.640135143633204 18.393016929051075 C 15.694726737926233 18.66377534925197 15.624046877854086 18.938640993474145 15.436456854375166 19.1850858862773 C 15.248866830896246 19.431530779080454 14.95221905810292 19.63924163965355 14.58161457656628 19.783642609118488 C 14.21101009502964 19.928043578583424 13.781959480483664 20.00308989998088 13.34523169976524 19.999901917038297 Z" fill="rgb(255,255,255)"/>
        </svg>