<svg 
          width="13.064384460449219" 
          height="13.001222610473633" fill="none" 
          xmlns="http://www.w3.org/2000/svg">
          <path d="M 12.03315097452839 0.2522223889827728 C 11.802874687451709 0.12447495758533478 11.549598346633536 0.04323554877191782 11.287805363395362 0.013150055892765522 C 11.026012380157189 -0.016935436986386776 10.760837551292472 0.00472298264503479 10.507446943784288 0.07688697427511215 C 10.254056336276104 0.14905096590518951 10.017420020535882 0.2703050523996353 9.811069713581258 0.43371471762657166 C 9.604719406626634 0.597124382853508 9.432703093762422 0.7994843125343323 9.304858083263762 1.0292223691940308 L 5.580537744087869 7.7112226486206055 L 3.4490593711851165 5.5862226486206055 C 3.264003218674295 5.395202249288559 3.0426416316354463 5.242837563157082 2.797889720411305 5.138019561767578 C 2.5531378091871635 5.033201560378075 2.289897801611529 4.978028991958126 2.0235295472228736 4.97572135925293 C 1.7571612928342182 4.973413726547733 1.4929989161667359 5.024017661809921 1.2464568666566884 5.124579429626465 C 0.9999148171466409 5.225141197443008 0.7759303574376883 5.373647436499596 0.5875724431361712 5.561432838439941 C 0.399214528834654 5.749218240380287 0.2502555301029672 5.972521483898163 0.14938717373086324 6.218314170837402 C 0.04851881735875928 6.464106857776642 -0.002238924466541641 6.727466195821762 0.00007574365373591433 6.993024826049805 C 0.00239041177401347 7.258583456277847 0.05773119370767374 7.521023824810982 0.16286875988149327 7.765031814575195 C 0.2680063260553128 8.009039804339409 0.4208350570447146 8.229729041457176 0.6124378314640867 8.414222717285156 L 4.624633164839606 12.414222717285156 C 5.003785586746154 12.793222725391388 5.515339995674168 13.001222610473633 6.042943665661478 13.001222610473633 L 6.320788600345368 12.981222152709961 C 6.6282732532097555 12.938339725136757 6.921577208064977 12.824889108538628 7.177612345853968 12.649801254272461 C 7.433647483642958 12.474713400006294 7.645424823142907 12.242768615484238 7.796273041113812 11.972223281860352 L 12.811515877586592 2.972222089767456 C 12.939559483443023 2.7426737248897552 13.020997908305022 2.490228980779648 13.051177891577357 2.229302167892456 C 13.081357874849692 1.9683753550052643 13.059688914079048 1.7040772438049316 12.987410233013245 1.451499342918396 C 12.915131551947441 1.1989214420318604 12.793658617064862 0.9630105793476105 12.629926033889397 0.7572377324104309 C 12.466193450713932 0.5514648854732513 12.263408399006929 0.3798602819442749 12.03315097452839 0.2522223889827728 L 12.03315097452839 0.2522223889827728 Z" fill="rgb(255,255,255)"/>
        </svg>