<svg 
          width="178.125" 
          height="184.0625" fill="none" 
          xmlns="http://www.w3.org/2000/svg">
          <path d="M 8.90625 0 C 11.268334449268878 0 13.533672241028398 1.0206462861970067 15.203918069601059 2.8374049067497253 C 16.87416389817372 4.654163527302444 17.8125 7.118215160444379 17.8125 9.6875 L 17.8125 29.0625 C 17.812500000000014 49.61677871644497 25.319171827286482 69.32921025902033 38.68113845586777 83.86327922344208 C 52.04310508444905 98.39734818786383 70.16582440584898 106.56249999999997 89.0625 106.5625 C 107.95917559415102 106.56249999999997 126.08189491555095 98.39734818786383 139.44386154413223 83.86327922344208 C 152.80582817271352 69.32921025902033 160.31249999999997 49.61677871644497 160.3125 29.0625 L 160.3125 9.6875 C 160.3125 7.118215160444379 161.2508276081644 4.654163527302444 162.92107343673706 2.8374049067497253 C 164.59131926530972 1.0206462861970067 166.85666555073112 0 169.21875 0 C 171.58083444926888 0 173.84618073469028 1.0206462861970067 175.51642656326294 2.8374049067497253 C 177.1866723918356 4.654163527302444 178.125 7.118215160444379 178.125 9.6875 L 178.125 29.0625 C 178.12527737730193 53.07837001979351 169.92440555244684 76.23823914676905 155.11339366436005 94.04898643493652 C 140.30238177627325 111.859733723104 119.93718389421701 123.0515453312546 97.96875 125.45313239097595 L 97.96875 164.6875 L 151.40625 164.6875 C 153.76833444926888 164.6875 156.03368073469028 165.70813704747707 157.70392656326294 167.52489566802979 C 159.3741723918356 169.3416542885825 160.3125 171.80571516044438 160.3125 174.375 C 160.3125 176.94428483955562 159.3741723918356 179.4083457114175 157.70392656326294 181.22510433197021 C 156.03368073469028 183.04186295252293 153.76833444926888 184.0625 151.40625 184.0625 L 26.71875 184.0625 C 24.356665550731122 184.0625 22.0913277589716 183.04186295252293 20.42108193039894 181.22510433197021 C 18.75083610182628 179.4083457114175 17.812499999999993 176.94428483955562 17.8125 174.375 C 17.812499999999993 171.80571516044438 18.75083610182628 169.3416542885825 20.42108193039894 167.52489566802979 C 22.0913277589716 165.70813704747707 24.356665550731122 164.6875 26.71875 164.6875 L 80.15625 164.6875 L 80.15625 125.45313239097595 C 58.187816105782986 123.0515453312546 37.82261822372675 111.859733723104 23.011606335639954 94.04898643493652 C 8.200594447553158 76.23823914676905 -0.0002773702658782906 53.07837001979351 7.0360488269027854e-9 29.0625 L 7.0360488269027854e-9 9.6875 C 7.0360488269027854e-9 7.118215160444379 0.9383361018262804 4.654163527302444 2.608581930398941 2.8374049067497253 C 4.278827758971602 1.0206462861970067 6.5441655507311225 0 8.90625 0 Z" fill="rgb(62.68750101327896,57.202343344688416,57.202343344688416)"/>
        </svg>