<svg 
          width="67.5" 
          height="65.00000762939453" fill="none" 
          xmlns="http://www.w3.org/2000/svg">
          <path d="M 13.5 6.500000762939453 C 11.709788627922535 6.500000762939456 9.992899429053068 7.18482002756399 8.727028906345367 8.40380659991697 C 7.461158383637667 9.622793172269951 6.750000000000006 11.276094076349068 6.75 13.000001525878906 L 6.75 52.000006103515624 C 6.750000000000003 53.72391355304546 7.461158383637667 55.37721290740363 8.727028906345367 56.59619947975661 C 9.992899429053068 57.815186052109595 11.709788627922535 58.500006866455074 13.5 58.500006866455074 L 54 58.500006866455074 C 55.790211372077465 58.500006866455074 57.50709896162152 57.815186052109595 58.772969484329224 56.59619947975661 C 60.038840007036924 55.37721290740363 60.75 53.72391355304546 60.75 52.000006103515624 L 60.75 13.000001525878906 C 60.75 11.276094076349068 60.038840007036924 9.622793172269951 58.772969484329224 8.40380659991697 C 57.50709896162152 7.18482002756399 55.790211372077465 6.500000762939457 54 6.500000762939453 L 13.5 6.500000762939453 Z M 13.5 0 L 54 0 C 57.58042274415493 1.443290101419293e-15 61.014197923243046 1.3696393041095463 63.54593896865845 3.807612448815507 C 66.07768001407385 6.245585593521469 67.5 9.55218662681923 67.5 13.000001525878906 L 67.5 52.000006103515624 C 67.5 55.4478210025753 66.07768001407385 58.75441971129164 63.54593896865845 61.1923928559976 C 61.014197923243046 63.63036600070357 57.58042274415493 65.00000762939453 54 65.00000762939453 L 13.5 65.00000762939453 C 9.91957725584507 65.00000762939453 6.485799662768841 63.63036600070357 3.9540586173534393 61.1923928559976 C 1.4223175719380379 58.75441971129164 1.4988010832439613e-15 55.4478210025753 0 52.000006103515624 L 0 13.000001525878906 C 0 9.55218662681923 1.4223175719380379 6.245585593521469 3.9540586173534393 3.807612448815507 C 6.485799662768841 1.3696393041095463 9.91957725584507 4.3298703042578785e-15 13.5 0 L 13.5 0 Z" fill="rgb(24.000000469386578,199.0000033378601,99.00000169873238)"/>
        </svg>