<svg 
          width="30.30078125" 
          height="32.470741271972656" fill="none" 
          xmlns="http://www.w3.org/2000/svg">
          <path d="M 29.720252449935863 15.063746318374642 L 23.587877070524232 11.651249449396484 L 18.54225190094858 16.350745775131397 L 23.152503001034336 20.647246591405597 L 29.720252449935863 16.99424860295071 C 29.89722147282831 16.897396291880842 30.044255826536542 16.75695494477011 30.146266681816332 16.58733230070518 C 30.248277537096122 16.417709656640252 30.301596076670368 16.22500826057431 30.300755500790622 16.028995910942207 C 30.302196920106752 15.832433713223635 30.24916414347914 15.639059907975124 30.1471228430282 15.468815353821947 C 30.04508154257726 15.29857079966877 29.897722714884136 15.157620472295323 29.720252449935863 15.060498104273067 L 29.720252449935863 15.063746318374642 Z M 22.548378269225115 11.066248569255801 L 15.79837752566151 7.312500153715267 L 1.0023764880018975 0 L 17.70862768459159 15.577246195548527 L 22.548378269225115 11.066248569255801 Z M 1.2521261164010056 32.470741271972656 L 15.822002425267144 24.729244398779407 L 22.11300419973522 21.22899615800377 L 17.71200404967147 17.124248454155204 L 1.2521261164010056 32.470741271972656 Z M 0.01687538809704971 0.6337504369122511 L 0 32.08399303190169 L 16.88175297974319 16.350745775131397 L 0.01687538809704971 0.6337504369122511 Z" fill="rgb(24.000000469386578,199.0000033378601,99.00000169873238)"/>
        </svg>