<svg 
          width="40" 
          height="40" fill="none" 
          xmlns="http://www.w3.org/2000/svg">
          <path d="M 6.666666666666667 8 L 10 8 L 10 32 L 6.666666666666667 32 L 6.666666666666667 8 Z M 11.666666666666668 8 L 13.333333333333334 8 L 13.333333333333334 32 L 11.666666666666668 32 L 11.666666666666668 8 Z M 15 8 L 20 8 L 20 32 L 15 32 L 15 8 Z M 21.666666666666668 8 L 23.333333333333336 8 L 23.333333333333336 32 L 21.666666666666668 32 L 21.666666666666668 8 Z M 26.666666666666668 8 L 30 8 L 30 32 L 26.666666666666668 32 L 26.666666666666668 8 Z M 31.666666666666668 8 L 33.333333333333336 8 L 33.333333333333336 32 L 31.666666666666668 32 L 31.666666666666668 8 Z M 3.3333333333333335 4 L 3.3333333333333335 12 L 0 12 L 0 4 C 1.61907524424502e-16 2.9391340017318726 0.351189523935318 1.921718180179596 0.9763107697168987 1.1715726852416992 C 1.6014320154984794 0.4214271903038025 2.4492783347765608 8.881784197001252e-16 3.3333333333333335 0 L 10 0 L 10 4 L 3.3333333333333335 4 Z M 36.66666666666667 0 C 37.55072166522344 8.881784197001252e-16 38.39856738845508 0.4214271903038025 39.023688634236656 1.1715726852416992 C 39.648809880018234 1.921718180179596 40 2.9391340017318726 40 4 L 40 12 L 36.66666666666667 12 L 36.66666666666667 4 L 30 4 L 30 0 L 36.66666666666667 0 Z M 3.3333333333333335 28 L 3.3333333333333335 36 L 10 36 L 10 40 L 3.3333333333333335 40 C 2.4492783347765608 40 1.6014320154984794 39.57857185602188 0.9763107697168987 38.828426361083984 C 0.351189523935318 38.07828086614609 4.85722573273506e-16 37.06086599826813 0 36 L 0 28 L 3.3333333333333335 28 Z M 36.66666666666667 36 L 36.66666666666667 28 L 40 28 L 40 36 C 40 37.06086599826813 39.648809880018234 38.07828086614609 39.023688634236656 38.828426361083984 C 38.39856738845508 39.57857185602188 37.55072166522344 40 36.66666666666667 40 L 30 40 L 30 36 L 36.66666666666667 36 Z" fill="rgb(255,255,255)"/>
        </svg>