<svg 
          width="28" 
          height="32" fill="none" 
          xmlns="http://www.w3.org/2000/svg">
          <path d="M 4 14 L 4 10 C 4 7.347835063934326 5.053568363189697 4.804296016693115 6.928932189941406 2.9289321899414062 C 8.804296016693115 1.0535683631896973 11.347835063934326 1.7763568394002505e-15 14 0 C 16.652164936065674 0 19.195703983306885 1.0535683631896973 21.071067810058594 2.9289321899414062 C 22.946431636810303 4.804296016693115 24 7.347835063934326 24 10 L 24 14 C 25.060865998268127 14 26.078280866146088 14.421428143978119 26.828426361083984 15.171573638916016 C 27.57857185602188 15.921719133853912 28 16.939134001731873 28 18 L 28 28 C 28 29.060865998268127 27.57857185602188 30.078280866146088 26.828426361083984 30.828426361083984 C 26.078280866146088 31.57857185602188 25.060865998268127 32 24 32 L 4 32 C 2.9391340017318726 32 1.921718180179596 31.57857185602188 1.1715726852416992 30.828426361083984 C 0.4214271903038025 30.078280866146088 8.881784197001252e-16 29.060865998268127 0 28 L 0 18 C 0 16.939134001731873 0.4214271903038025 15.921719133853912 1.1715726852416992 15.171573638916016 C 1.921718180179596 14.421428143978119 2.9391340017318726 13.999999999999996 4 14 L 4 14 Z M 20 10 L 20 14 L 8 14 L 8 10 C 8 8.408701062202454 8.63214123249054 6.8825777769088745 9.757359504699707 5.757359504699707 C 10.882577776908875 4.6321412324905396 12.408701062202454 4.000000000000001 14 4 C 15.591298937797546 4.000000000000001 17.117423176765442 4.6321412324905396 18.24264144897461 5.757359504699707 C 19.367859721183777 6.8825777769088745 19.999999999999996 8.408701062202454 20 10 L 20 10 Z" fill="rgb(255,255,255)"/>
        </svg>