<svg 
          width="23" 
          height="30" fill="none" 
          xmlns="http://www.w3.org/2000/svg">
          <path d="M 19.18377056841253 29.999852875557448 C 18.692813612316495 30.000941283861746 18.207722255837723 29.930293393766856 17.764139149514072 29.793102165869325 C 17.32055604319042 29.655910937971793 16.92975464128712 29.45566092241645 16.620452802982214 29.207068730068812 L 0.7475953030167902 16.351140817231325 C 0.2642395332940303 15.967749079127001 0 15.486846593786487 0 14.990554406448574 C 0 14.494262219110661 0.2642395332940303 14.013359733770148 0.7475953030167902 13.629967995665824 L 17.17912506563653 0.7740391888430086 C 17.73693790874432 0.33647328083896894 18.53850387782704 0.061303987249806714 19.407489571907764 0.009066644545248054 C 20.276475265988488 -0.04317069815931061 21.141697437002044 0.13180261958475625 21.812815957244805 0.4954937626558523 C 22.483934477487566 0.8591849057269484 22.905974898451163 1.3818029814359605 22.986094151009226 1.9483772940259507 C 23.06621340356729 2.514951606615941 22.797848901298803 3.07907093971106 22.240036107160787 3.516636879643147 L 7.550247621840376 15.001267926619505 L 21.747088333842846 26.48589999529338 C 22.148948139245647 26.800409365672966 22.4042188521765 27.183387763275274 22.48269426897273 27.589525393576615 C 22.56116968576896 27.995663023877956 22.459567386915246 28.407961490211218 22.1899067281643 28.777628829415953 C 21.920246069413352 29.147296168620688 21.493814896022947 29.45886245948033 20.961070953814026 29.67546391367773 C 20.428327011605106 29.892065367875134 19.811566753195265 30.004634849971318 19.18377056841253 29.999852875557448 Z" fill="rgb(24.000000469386578,199.0000033378601,99.00000169873238)"/>
        </svg>